<?xml version="1.0" encoding="UTF-8"?>
<svg id="Icon-2" data-name="Icon" xmlns="http://www.w3.org/2000/svg" viewBox="0 0 1024 916">
  <defs>
    <style>
      .cls-1 {
        fill: #ffa500;
      }

      .cls-1, .cls-2 {
        stroke-width: 0px;
      }

      .cls-2 {
        fill: #ffffff;
      }
    </style>
  </defs>
  <g id="Icon-3" data-name="Icon">
    <path id="frame" class="cls-1" d="M252.73,626.79l167.04,289.19h493.95c84.8,0,137.76-91.69,95.36-165.11l-127.48-220.82-83.06,143.91,10.65,18.45c21.2,36.71-5.32,82.6-47.63,82.6h-75.9l168.69-292.22L607.36,55.01c-42.4-73.33-148.31-73.33-190.71,0l-132.71,229.81h166.3l14.13-24.51c21.11-36.71,74.16-36.71,95.36,0l38.91,67.46h-339.49L14.93,750.88c-42.4,73.42,10.55,165.11,95.36,165.11h256.7l-81.41-140.97h-23.04c-42.4,0-68.92-45.89-47.72-82.6l37.9-65.62ZM339.27,474.44h345.45l-.73,1.19-171.99,298-171.99-297.91-.73-1.29Z"/>
    <path id="key_frame" data-name="key frame" class="cls-2" d="M542.84,631.01c2.02,5.69-2.2,11.75-8.26,11.75h-52.68c-6.15,0-10.37-6.06-8.26-11.75l14.78-40.02c-10.19-6.52-16.89-17.9-16.89-30.84,0-20.28,16.43-36.71,36.71-36.71s36.71,16.43,36.71,36.71c0,12.94-6.7,24.32-16.89,30.84l14.78,40.02Z"/>
  </g>
</svg>