<?xml version="1.0" encoding="UTF-8"?>
<svg id="Layer_1" data-name="Layer 1" xmlns="http://www.w3.org/2000/svg" viewBox="0 0 1000 1000">
  <defs>
    <style>
      .cls-1 {
        fill: #003fb3;
      }

      .cls-1, .cls-2 {
        stroke-width: 0px;
      }

      .cls-2 {
        fill: #ffb733;
      }
    </style>
  </defs>
  <rect class="cls-2" x="75" y="900" width="50" height="50"/>
  <rect class="cls-2" x="175" y="650" width="50" height="300"/>
  <rect class="cls-2" x="275" y="350" width="50" height="600"/>
  <rect class="cls-2" x="375" y="100" width="50" height="400"/>
  <rect class="cls-2" x="475" y="50" width="50" height="450"/>
  <rect class="cls-2" x="575" y="200" width="50" height="300"/>
  <rect class="cls-2" x="675" y="250" width="50" height="700"/>
  <rect class="cls-2" x="775" y="450" width="50" height="500"/>
  <rect class="cls-2" x="875" y="800" width="50" height="150"/>
  <rect class="cls-2" x="375" y="850" width="50" height="100"/>
  <rect class="cls-2" x="475" y="850" width="50" height="100"/>
  <rect class="cls-2" x="575" y="850" width="50" height="100"/>
  <rect class="cls-1" x="375" y="550" width="250" height="50"/>
  <rect class="cls-1" x="375" y="650" width="250" height="50"/>
  <rect class="cls-1" x="375" y="750" width="250" height="50"/>
</svg>